<?xml version="1.0" encoding="UTF-8" standalone="no"?>
<!-- Created with Inkscape (http://www.inkscape.org/) -->

<svg
   xmlns:dc="http://purl.org/dc/elements/1.1/"
   xmlns:cc="http://creativecommons.org/ns#"
   xmlns:rdf="http://www.w3.org/1999/02/22-rdf-syntax-ns#"
   xmlns:svg="http://www.w3.org/2000/svg"
   xmlns="http://www.w3.org/2000/svg"
   xmlns:xlink="http://www.w3.org/1999/xlink"
   xmlns:sodipodi="http://sodipodi.sourceforge.net/DTD/sodipodi-0.dtd"
   xmlns:inkscape="http://www.inkscape.org/namespaces/inkscape"
   version="1.0"
   width="96"
   height="96"
   id="svg2408"
   inkscape:version="0.48.0 r9654"
   sodipodi:docname="user-trash.svg">
  <sodipodi:namedview
     pagecolor="#ffffff"
     bordercolor="#666666"
     borderopacity="1"
     objecttolerance="10"
     gridtolerance="10"
     guidetolerance="10"
     inkscape:pageopacity="0"
     inkscape:pageshadow="2"
     inkscape:window-width="1280"
     inkscape:window-height="984"
     id="namedview118"
     showgrid="false"
     inkscape:zoom="1"
     inkscape:cx="169.12251"
     inkscape:cy="363.45081"
     inkscape:window-x="0"
     inkscape:window-y="19"
     inkscape:window-maximized="1"
     inkscape:current-layer="svg2408" />
  <defs
     id="defs2410">
    <filter
       color-interpolation-filters="sRGB"
       id="filter3276">
      <feGaussianBlur
         id="feGaussianBlur3278"
         stdDeviation="0.56241694" />
    </filter>
    <linearGradient
       id="linearGradient4368">
      <stop
         id="stop4370"
         style="stop-color:#828282;stop-opacity:1"
         offset="0" />
      <stop
         id="stop4372"
         style="stop-color:#5a5a5a;stop-opacity:1"
         offset="1" />
    </linearGradient>
    <linearGradient
       id="linearGradient4360">
      <stop
         id="stop4362"
         style="stop-color:#6e6e6e;stop-opacity:1"
         offset="0" />
      <stop
         id="stop4364"
         style="stop-color:#8c8c8c;stop-opacity:1"
         offset="1" />
    </linearGradient>
    <linearGradient
       id="linearGradient7105">
      <stop
         id="stop7107"
         style="stop-color:#515151;stop-opacity:1"
         offset="0" />
      <stop
         id="stop7113"
         style="stop-color:#272727;stop-opacity:1"
         offset="1" />
    </linearGradient>
    <radialGradient
       cx="65.547707"
       cy="32.811893"
       r="51.413425"
       fx="65.547707"
       fy="32.811893"
       id="radialGradient3354"
       xlink:href="#linearGradient7105"
       gradientUnits="userSpaceOnUse"
       gradientTransform="matrix(0.4586549,-2.5902411e-8,1.2820624e-8,0.2816917,17.665932,21.191203)" />
    <filter
       x="-0.05059075"
       y="-0.12198729"
       width="1.1011815"
       height="1.2439746"
       color-interpolation-filters="sRGB"
       id="filter3279">
      <feGaussianBlur
         id="feGaussianBlur3281"
         stdDeviation="1.7481104" />
    </filter>
    <linearGradient
       id="linearGradient7097">
      <stop
         id="stop7099"
         style="stop-color:#919191;stop-opacity:1"
         offset="0" />
      <stop
         id="stop7101"
         style="stop-color:#ffffff;stop-opacity:1"
         offset="1" />
    </linearGradient>
    <linearGradient
       id="linearGradient7175">
      <stop
         id="stop7177"
         style="stop-color:#000000;stop-opacity:1"
         offset="0" />
      <stop
         id="stop7179"
         style="stop-color:#000000;stop-opacity:0"
         offset="1" />
    </linearGradient>
    <linearGradient
       id="linearGradient7155">
      <stop
         id="stop7157"
         style="stop-color:#ffffff;stop-opacity:1"
         offset="0" />
      <stop
         id="stop7159"
         style="stop-color:#ffffff;stop-opacity:0"
         offset="1" />
    </linearGradient>
    <linearGradient
       id="linearGradient3172">
      <stop
         id="stop3174"
         style="stop-color:#a0a0a0;stop-opacity:1"
         offset="0" />
      <stop
         id="stop3188"
         style="stop-color:#dcdcdc;stop-opacity:1"
         offset="0.1362071" />
      <stop
         id="stop3180"
         style="stop-color:#f5f5f5;stop-opacity:1"
         offset="0.3023597" />
      <stop
         id="stop3190"
         style="stop-color:#dcdcdc;stop-opacity:1"
         offset="0.61225069" />
      <stop
         id="stop3176"
         style="stop-color:#b4b4b4;stop-opacity:1"
         offset="1" />
    </linearGradient>
    <linearGradient
       x1="58.650177"
       y1="122"
       x2="58.650177"
       y2="5.4252338"
       id="ButtonColor"
       gradientUnits="userSpaceOnUse"
       gradientTransform="matrix(1.0172414,0,0,1.0172414,-1.1034483,-1.1034483)">
      <stop
         id="stop3189"
         style="stop-color:#000000;stop-opacity:0.15625"
         offset="0" />
      <stop
         id="stop3191"
         style="stop-color:#ffffff;stop-opacity:0"
         offset="1" />
    </linearGradient>
    <linearGradient
       x1="45.447727"
       y1="92.539597"
       x2="45.447727"
       y2="7.0165396"
       id="ButtonShadow"
       gradientUnits="userSpaceOnUse"
       gradientTransform="scale(1.0058652,0.994169)">
      <stop
         id="stop3750"
         style="stop-color:#000000;stop-opacity:1"
         offset="0" />
      <stop
         id="stop3752"
         style="stop-color:#000000;stop-opacity:0.58823532"
         offset="1" />
    </linearGradient>
    <linearGradient
       id="linearGradient3737">
      <stop
         id="stop3739"
         style="stop-color:#ffffff;stop-opacity:1"
         offset="0" />
      <stop
         id="stop3741"
         style="stop-color:#ffffff;stop-opacity:0"
         offset="1" />
    </linearGradient>
    <linearGradient
       x1="48"
       y1="90"
       x2="48"
       y2="5.9877172"
       id="linearGradient3706"
       xlink:href="#linearGradient3172"
       gradientUnits="userSpaceOnUse"
       gradientTransform="matrix(0,1,-1,0,96,0)" />
    <filter
       x="-0.29508197"
       y="-0.46153846"
       width="1.5901639"
       height="1.9230769"
       color-interpolation-filters="sRGB"
       id="filter3179">
      <feGaussianBlur
         id="feGaussianBlur3181"
         stdDeviation="6.6964288" />
    </filter>
    <filter
       color-interpolation-filters="sRGB"
       id="filter3174">
      <feGaussianBlur
         id="feGaussianBlur3176"
         stdDeviation="1.71" />
    </filter>
    <linearGradient
       x1="36.357143"
       y1="6"
       x2="36.357143"
       y2="63.893143"
       id="linearGradient3188"
       xlink:href="#linearGradient3737"
       gradientUnits="userSpaceOnUse" />
    <linearGradient
       x1="48"
       y1="90"
       x2="48"
       y2="5.9877172"
       id="linearGradient3536"
       xlink:href="#ButtonColor"
       gradientUnits="userSpaceOnUse" />
    <linearGradient
       x1="87.228699"
       y1="103.55167"
       x2="69.920662"
       y2="103.55167"
       id="linearGradient3659"
       xlink:href="#linearGradient4360"
       gradientUnits="userSpaceOnUse" />
    <linearGradient
       x1="82.855774"
       y1="87.433334"
       x2="86.748848"
       y2="97.972473"
       id="linearGradient3661"
       xlink:href="#linearGradient4368"
       gradientUnits="userSpaceOnUse" />
    <linearGradient
       x1="52.105541"
       y1="76.541229"
       x2="61.130371"
       y2="68.295815"
       id="linearGradient3663"
       xlink:href="#linearGradient4368"
       gradientUnits="userSpaceOnUse" />
    <linearGradient
       x1="66.740204"
       y1="63.588692"
       x2="75.281227"
       y2="80.814972"
       id="linearGradient3665"
       xlink:href="#linearGradient4360"
       gradientUnits="userSpaceOnUse" />
    <linearGradient
       x1="43.245415"
       y1="104.21532"
       x2="48.193569"
       y2="93.471298"
       id="linearGradient3667"
       xlink:href="#linearGradient4360"
       gradientUnits="userSpaceOnUse" />
    <linearGradient
       x1="60.413662"
       y1="106.16137"
       x2="46.921165"
       y2="110.65887"
       id="linearGradient3669"
       xlink:href="#linearGradient4368"
       gradientUnits="userSpaceOnUse" />
    <linearGradient
       x1="48.22263"
       y1="13.313221"
       x2="48.22263"
       y2="47.795158"
       id="linearGradient3273"
       xlink:href="#linearGradient7097"
       gradientUnits="userSpaceOnUse"
       gradientTransform="matrix(0.7658578,0,0,0.8004449,91.777775,-39.995408)" />
    <linearGradient
       x1="26.98472"
       y1="5"
       x2="26.98472"
       y2="110.74494"
       id="linearGradient4412"
       xlink:href="#linearGradient7155"
       gradientUnits="userSpaceOnUse"
       gradientTransform="matrix(0.709739,0,0,0.709739,49.188311,2.4513075)" />
    <linearGradient
       x1="26.98472"
       y1="5"
       x2="26.98472"
       y2="110.67213"
       id="linearGradient4493"
       xlink:href="#linearGradient7155"
       gradientUnits="userSpaceOnUse"
       gradientTransform="matrix(0.08901589,0,0,0.709739,11.943011,2.4513075)" />
    <linearGradient
       x1="26.98472"
       y1="5"
       x2="26.98472"
       y2="176.64893"
       id="linearGradient4496"
       xlink:href="#linearGradient7175"
       gradientUnits="userSpaceOnUse"
       gradientTransform="matrix(0.2808238,0,0,0.709739,70.100848,2.7021052)" />
    <linearGradient
       x1="26.98472"
       y1="5"
       x2="26.98472"
       y2="68.695473"
       id="linearGradient4499"
       xlink:href="#linearGradient7155"
       gradientUnits="userSpaceOnUse"
       gradientTransform="matrix(0.1418434,0,0,0.709739,78.150836,2.4513075)" />
    <linearGradient
       x1="26.98472"
       y1="5"
       x2="26.98472"
       y2="120.63893"
       id="linearGradient4502"
       xlink:href="#linearGradient7175"
       gradientUnits="userSpaceOnUse"
       gradientTransform="matrix(0.7757734,0,0,-0.709739,33.236696,93.548693)" />
    <linearGradient
       x1="26.98472"
       y1="5"
       x2="26.98472"
       y2="70.167"
       id="linearGradient4505"
       xlink:href="#linearGradient7175"
       gradientUnits="userSpaceOnUse"
       gradientTransform="matrix(0.9606696,0,0,0.709739,6.6792845,-93.297899)" />
    <linearGradient
       x1="26.98472"
       y1="5"
       x2="26.98472"
       y2="68.695473"
       id="linearGradient4508"
       xlink:href="#linearGradient7155"
       gradientUnits="userSpaceOnUse"
       gradientTransform="matrix(0.3531534,0,0,-0.709739,10.75407,93.297899)" />
    <linearGradient
       x1="26.98472"
       y1="54.295403"
       x2="26.98472"
       y2="96.039551"
       id="linearGradient4511"
       xlink:href="#linearGradient7155"
       gradientUnits="userSpaceOnUse"
       gradientTransform="matrix(0.287119,0,0,-0.709739,36.51664,93.297899)"
       spreadMethod="reflect" />
    <linearGradient
       id="linearGradient3737-6">
      <stop
         id="stop3739-6"
         style="stop-color:#ffffff;stop-opacity:1"
         offset="0" />
      <stop
         id="stop3741-4"
         style="stop-color:#ffffff;stop-opacity:0"
         offset="1" />
    </linearGradient>
    <radialGradient
       cx="48"
       cy="90.171875"
       r="42"
       fx="48"
       fy="90.171875"
       id="radialGradient2893"
       xlink:href="#linearGradient3737-6"
       gradientUnits="userSpaceOnUse"
       gradientTransform="matrix(1.1573129,0,0,0.99590774,-7.551021,0.1971319)" />
    <linearGradient
       x1="45.447727"
       y1="92.539597"
       x2="45.447727"
       y2="7.0165396"
       id="ButtonShadow-0"
       gradientUnits="userSpaceOnUse"
       gradientTransform="matrix(1.0058652,0,0,0.994169,100,0)">
      <stop
         id="stop3750-8"
         style="stop-color:#000000;stop-opacity:1"
         offset="0" />
      <stop
         id="stop3752-5"
         style="stop-color:#000000;stop-opacity:0.58823532"
         offset="1" />
    </linearGradient>
    <linearGradient
       x1="32.251034"
       y1="6.1317081"
       x2="32.251034"
       y2="90.238609"
       id="linearGradient3780"
       xlink:href="#ButtonShadow-0"
       gradientUnits="userSpaceOnUse"
       gradientTransform="matrix(1.0238095,0,0,1.0119048,-1.1428571,-98.071429)" />
    <linearGradient
       x1="32.251034"
       y1="6.1317081"
       x2="32.251034"
       y2="90.238609"
       id="linearGradient3772"
       xlink:href="#ButtonShadow-0"
       gradientUnits="userSpaceOnUse"
       gradientTransform="matrix(1.0238095,0,0,1.0119048,-1.1428571,-98.071429)" />
    <linearGradient
       x1="32.251034"
       y1="6.1317081"
       x2="32.251034"
       y2="90.238609"
       id="linearGradient3725"
       xlink:href="#ButtonShadow-0"
       gradientUnits="userSpaceOnUse"
       gradientTransform="matrix(1.0238095,0,0,1.0119048,-1.1428571,-98.071429)" />
    <linearGradient
       x1="32.251034"
       y1="6.1317081"
       x2="32.251034"
       y2="90.238609"
       id="linearGradient3721"
       xlink:href="#ButtonShadow-0"
       gradientUnits="userSpaceOnUse"
       gradientTransform="translate(0,-97)" />
    <linearGradient
       x1="32.251034"
       y1="6.1317081"
       x2="32.251034"
       y2="90.238609"
       id="linearGradient2918"
       xlink:href="#ButtonShadow-0"
       gradientUnits="userSpaceOnUse"
       gradientTransform="matrix(1.0238095,0,0,1.0119048,-1.1428571,-98.071429)" />
    <linearGradient
       inkscape:collect="always"
       xlink:href="#linearGradient3172"
       id="linearGradient3163"
       gradientUnits="userSpaceOnUse"
       gradientTransform="matrix(0,1,-1,0,96,0)"
       x1="48"
       y1="90"
       x2="48"
       y2="5.9877172" />
    <linearGradient
       inkscape:collect="always"
       xlink:href="#ButtonColor"
       id="linearGradient3165"
       gradientUnits="userSpaceOnUse"
       x1="48"
       y1="90"
       x2="48"
       y2="5.9877172" />
    <linearGradient
       inkscape:collect="always"
       xlink:href="#linearGradient7155"
       id="linearGradient3167"
       gradientUnits="userSpaceOnUse"
       gradientTransform="matrix(0.709739,0,0,0.709739,49.188311,2.4513075)"
       x1="26.98472"
       y1="-63.926041"
       x2="26.98472"
       y2="110.74494" />
    <linearGradient
       inkscape:collect="always"
       xlink:href="#linearGradient7155"
       id="linearGradient3169"
       gradientUnits="userSpaceOnUse"
       gradientTransform="matrix(0.287119,0,0,-0.709739,36.51664,93.297899)"
       spreadMethod="reflect"
       x1="26.98472"
       y1="54.295403"
       x2="26.98472"
       y2="96.039551" />
    <linearGradient
       inkscape:collect="always"
       xlink:href="#linearGradient7155"
       id="linearGradient3171"
       gradientUnits="userSpaceOnUse"
       gradientTransform="matrix(0.3531534,0,0,-0.709739,10.75407,93.297899)"
       x1="26.98472"
       y1="5"
       x2="26.98472"
       y2="68.695473" />
    <linearGradient
       inkscape:collect="always"
       xlink:href="#linearGradient7175"
       id="linearGradient3173"
       gradientUnits="userSpaceOnUse"
       gradientTransform="matrix(0.9606696,0,0,0.709739,6.6792845,-93.297899)"
       x1="26.98472"
       y1="5"
       x2="26.98472"
       y2="70.167" />
    <linearGradient
       inkscape:collect="always"
       xlink:href="#linearGradient7175"
       id="linearGradient3175"
       gradientUnits="userSpaceOnUse"
       gradientTransform="matrix(0.7757734,0,0,-0.709739,33.236696,93.548693)"
       x1="26.98472"
       y1="5"
       x2="26.98472"
       y2="120.63893" />
    <linearGradient
       inkscape:collect="always"
       xlink:href="#linearGradient7155"
       id="linearGradient3177"
       gradientUnits="userSpaceOnUse"
       gradientTransform="matrix(0.1418434,0,0,0.709739,78.150836,2.4513075)"
       x1="26.98472"
       y1="5"
       x2="26.98472"
       y2="68.695473" />
    <linearGradient
       inkscape:collect="always"
       xlink:href="#linearGradient7175"
       id="linearGradient3179"
       gradientUnits="userSpaceOnUse"
       gradientTransform="matrix(0.2808238,0,0,0.709739,70.100848,2.7021052)"
       x1="26.98472"
       y1="5"
       x2="26.98472"
       y2="176.64893" />
    <linearGradient
       inkscape:collect="always"
       xlink:href="#linearGradient7155"
       id="linearGradient3181"
       gradientUnits="userSpaceOnUse"
       gradientTransform="matrix(0.08901589,0,0,0.709739,11.943011,2.4513075)"
       x1="26.98472"
       y1="5"
       x2="26.98472"
       y2="110.67213" />
    <linearGradient
       inkscape:collect="always"
       xlink:href="#linearGradient3737"
       id="linearGradient3183"
       gradientUnits="userSpaceOnUse"
       x1="36.357143"
       y1="6"
       x2="36.357143"
       y2="63.893143" />
    <radialGradient
       inkscape:collect="always"
       xlink:href="#linearGradient3737-6"
       id="radialGradient3185"
       gradientUnits="userSpaceOnUse"
       gradientTransform="matrix(1.1573129,0,0,0.99590774,-7.551021,0.1971319)"
       cx="48"
       cy="90.171875"
       fx="48"
       fy="90.171875"
       r="42" />
  </defs>
  <metadata
     id="metadata2413">
    <rdf:RDF>
      <cc:Work
         rdf:about="">
        <dc:format>image/svg+xml</dc:format>
        <dc:type
           rdf:resource="http://purl.org/dc/dcmitype/StillImage" />
        <dc:title></dc:title>
      </cc:Work>
    </rdf:RDF>
  </metadata>
  <g
     id="layer2"
     style="display:none">
    <rect
       width="86"
       height="85"
       rx="6"
       ry="6"
       x="5"
       y="7"
       id="rect3745"
       style="opacity:0.9;fill:url(#ButtonShadow);fill-opacity:1;fill-rule:nonzero;stroke:none;filter:url(#filter3174)" />
  </g>
  <g
     id="layer5"
     style="display:inline">
    <path
       d="m 12,-95.03125 c -5.5110903,0 -10.03125,4.52016 -10.03125,10.03125 l 0,71 c 0,5.5110902 4.5201598,10.03125 10.03125,10.03125 l 72,0 c 5.51109,0 10.03125,-4.5201597 10.03125,-10.03125 l 0,-71 c 0,-5.51109 -4.52016,-10.03125 -10.03125,-10.03125 l -72,0 z"
       transform="scale(1,-1)"
       id="path3786"
       style="opacity:0.07999998;fill:url(#linearGradient2918);fill-opacity:1;fill-rule:nonzero;stroke:none;display:inline" />
    <path
       d="m 12,-94.03125 c -4.971633,0 -9.03125,4.059617 -9.03125,9.03125 l 0,71 c 0,4.9716329 4.0596171,9.03125 9.03125,9.03125 l 72,0 c 4.971633,0 9.03125,-4.059617 9.03125,-9.03125 l 0,-71 c 0,-4.971633 -4.059617,-9.03125 -9.03125,-9.03125 l -72,0 z"
       transform="scale(1,-1)"
       id="path3778"
       style="opacity:0.1;fill:url(#linearGradient3780);fill-opacity:1;fill-rule:nonzero;stroke:none;display:inline" />
    <path
       d="m 12,-93 c -4.4091333,0 -8,3.590867 -8,8 l 0,71 c 0,4.4091333 3.5908667,8 8,8 l 72,0 c 4.409133,0 8,-3.5908667 8,-8 l 0,-71 c 0,-4.409133 -3.590867,-8 -8,-8 l -72,0 z"
       transform="scale(1,-1)"
       id="path3770"
       style="opacity:0.2;fill:url(#linearGradient3772);fill-opacity:1;fill-rule:nonzero;stroke:none;display:inline" />
    <rect
       width="86"
       height="85"
       rx="7"
       ry="7"
       x="5"
       y="-92"
       transform="scale(1,-1)"
       id="rect3723"
       style="opacity:0.3;fill:url(#linearGradient3725);fill-opacity:1;fill-rule:nonzero;stroke:none;display:inline" />
    <rect
       width="84"
       height="84"
       rx="6"
       ry="6"
       x="6"
       y="-91"
       transform="scale(1,-1)"
       id="rect3716"
       style="opacity:0.45;fill:url(#linearGradient3721);fill-opacity:1;fill-rule:nonzero;stroke:none;display:inline" />
  </g>
  <g
     id="layer1"
     style="display:inline"
     transform="translate(-111.17894,-0.21757132)">
    <g
       id="g3135"
       transform="translate(111.17894,1.7175713)">
      <path
         sodipodi:nodetypes="sssssssss"
         style="fill:url(#linearGradient3163);fill-opacity:1;fill-rule:nonzero;stroke:none"
         id="rect2419"
         inkscape:connector-curvature="0"
         d="M 12,6 C 8.676,6 6,8.676 6,12 l 0,72 c 0,3.324 2.676,6 6,6 l 72,0 c 3.324,0 6,-2.676 6,-6 L 90,12 C 90,8.676 87.324,6 84,6 z" />
      <g
         id="g3121">
        <g
           transform="matrix(0.7118644,0,0,0.7118644,2.440678,2.449082)"
           id="g3368"
           style="display:inline">
          <path
             d="M 123,42.75 C 109.48996,50.356013 87.9119,55.28125 63.59375,55.28125 39.759917,55.28125 18.554464,50.536617 5,43.1875 l 0,2 C 18.554464,52.536617 39.759917,57.28125 63.59375,57.28125 87.9119,57.28125 109.48996,52.356013 123,44.75 l 0,-2 z"
             inkscape:connector-curvature="0"
             id="path3358"
             style="fill:#a4a4a4;fill-opacity:1;fill-rule:evenodd;stroke:none" />
          <path
             d="M 123,44.75 C 109.48996,52.356013 87.9119,57.28125 63.59375,57.28125 39.759917,57.28125 18.554464,52.536617 5,45.1875 l 0,2 C 18.554464,54.536617 39.759917,59.28125 63.59375,59.28125 87.9119,59.28125 109.48996,54.356013 123,46.75 l 0,-2 z"
             inkscape:connector-curvature="0"
             id="path3366"
             style="fill:#e8e8e8;fill-opacity:1;fill-rule:evenodd;stroke:none" />
        </g>
        <g
           style="display:inline"
           id="g3103"
           transform="matrix(0.7118644,0,0,0.7118644,2.440678,21.577288)">
          <path
             style="fill:#a4a4a4;fill-opacity:1;fill-rule:evenodd;stroke:none"
             id="path3105"
             inkscape:connector-curvature="0"
             d="M 123,42.75 C 109.48996,50.356013 87.9119,55.28125 63.59375,55.28125 39.759917,55.28125 18.554464,50.536617 5,43.1875 l 0,2 C 18.554464,52.536617 39.759917,57.28125 63.59375,57.28125 87.9119,57.28125 109.48996,52.356013 123,44.75 l 0,-2 z" />
          <path
             style="fill:#e8e8e8;fill-opacity:1;fill-rule:evenodd;stroke:none"
             id="path3107"
             inkscape:connector-curvature="0"
             d="M 123,44.75 C 109.48996,52.356013 87.9119,57.28125 63.59375,57.28125 39.759917,57.28125 18.554464,52.536617 5,45.1875 l 0,2 C 18.554464,54.536617 39.759917,59.28125 63.59375,59.28125 87.9119,59.28125 109.48996,54.356013 123,46.75 l 0,-2 z" />
        </g>
        <g
           transform="matrix(0.7118644,0,0,0.7118644,2.440678,40.705494)"
           id="g3109"
           style="display:inline">
          <path
             d="M 123,42.75 C 109.48996,50.356013 87.9119,55.28125 63.59375,55.28125 39.759917,55.28125 18.554464,50.536617 5,43.1875 l 0,2 C 18.554464,52.536617 39.759917,57.28125 63.59375,57.28125 87.9119,57.28125 109.48996,52.356013 123,44.75 l 0,-2 z"
             inkscape:connector-curvature="0"
             id="path3111"
             style="fill:#a4a4a4;fill-opacity:1;fill-rule:evenodd;stroke:none" />
          <path
             d="M 123,44.75 C 109.48996,52.356013 87.9119,57.28125 63.59375,57.28125 39.759917,57.28125 18.554464,52.536617 5,45.1875 l 0,2 C 18.554464,54.536617 39.759917,59.28125 63.59375,59.28125 87.9119,59.28125 109.48996,54.356013 123,46.75 l 0,-2 z"
             inkscape:connector-curvature="0"
             id="path3113"
             style="fill:#e8e8e8;fill-opacity:1;fill-rule:evenodd;stroke:none" />
        </g>
        <g
           style="display:inline"
           id="g3115"
           transform="matrix(0.7118644,0,0,0.7118644,2.440678,-16.679122)">
          <path
             style="fill:#a4a4a4;fill-opacity:1;fill-rule:evenodd;stroke:none"
             id="path3117"
             inkscape:connector-curvature="0"
             d="M 123,42.75 C 109.48996,50.356013 87.9119,55.28125 63.59375,55.28125 39.759917,55.28125 18.554464,50.536617 5,43.1875 l 0,2 C 18.554464,52.536617 39.759917,57.28125 63.59375,57.28125 87.9119,57.28125 109.48996,52.356013 123,44.75 l 0,-2 z" />
          <path
             style="fill:#e8e8e8;fill-opacity:1;fill-rule:evenodd;stroke:none"
             id="path3119"
             inkscape:connector-curvature="0"
             d="M 123,44.75 C 109.48996,52.356013 87.9119,57.28125 63.59375,57.28125 39.759917,57.28125 18.554464,52.536617 5,45.1875 l 0,2 C 18.554464,54.536617 39.759917,59.28125 63.59375,59.28125 87.9119,59.28125 109.48996,54.356013 123,46.75 l 0,-2 z" />
        </g>
      </g>
      <path
         sodipodi:nodetypes="sssssssss"
         style="fill:url(#linearGradient3165);fill-opacity:1;fill-rule:nonzero;stroke:none"
         id="rect3480"
         inkscape:connector-curvature="0"
         d="M 12,6 C 8.676,6 6,8.676 6,12 l 0,72 c 0,3.324 2.676,6 6,6 l 72,0 c 3.324,0 6,-2.676 6,-6 L 90,12 C 90,8.676 87.324,6 84,6 z" />
      <g
         id="g4516">
        <path
           sodipodi:nodetypes="ccccccccc"
           style="opacity:0.25;fill:url(#linearGradient3167);fill-opacity:1;fill-rule:evenodd;stroke:none"
           id="rect7153"
           inkscape:connector-curvature="0"
           d="m 75.09375,19.25 0,-13.25 -13.5,0 0,7.96875 0,24.03125 0,51.75 13.5,0 0,-57.03125 z" />
        <path
           sodipodi:nodetypes="ccccccccc"
           style="opacity:0.3;fill:url(#linearGradient3169);fill-opacity:1;fill-rule:evenodd;stroke:none"
           id="rect7163"
           inkscape:connector-curvature="0"
           d="m 41.53125,39.03125 0,50.71875 L 47,89.75 47,39.3125 47,12.6875 47,6 l -5.46875,0 0,6.9375 z" />
        <path
           sodipodi:nodetypes="ccccccccc"
           style="opacity:0.4;fill:url(#linearGradient3171);fill-opacity:1;fill-rule:evenodd;stroke:none"
           id="rect7167"
           inkscape:connector-curvature="0"
           d="M 23.625,17.59375 23.625,6 l -6.6875,0 0,18.3125 0,3.375 0,62.0625 6.6875,0 0,-55.34375 z" />
        <rect
           style="opacity:0.15;fill:url(#linearGradient3173);fill-opacity:1;fill-rule:evenodd;stroke:none"
           id="rect7171"
           transform="scale(1,-1)"
           y="-89.749207"
           x="23.481384"
           height="83.749199"
           width="18.242579" />
        <path
           sodipodi:nodetypes="ccccccccc"
           style="opacity:0.1;fill:url(#linearGradient3175);fill-opacity:1;fill-rule:evenodd;stroke:none"
           id="rect7185"
           inkscape:connector-curvature="0"
           d="m 61.53125,14.3125 0,-8.0625 -14.71875,0 0,6.78125 0,25.9375 0,51.03125 14.71875,0 0,-52.3125 z" />
        <rect
           style="opacity:0.4;fill:url(#linearGradient3177);fill-opacity:1;fill-rule:evenodd;stroke:none"
           id="rect7189"
           y="6.0000024"
           x="80.631676"
           height="83.749199"
           width="2.6935267" />
        <path
           sodipodi:nodetypes="ccccccc"
           style="opacity:0.1;fill:url(#linearGradient3179);fill-opacity:1;fill-rule:evenodd;stroke:none"
           id="rect7193"
           inkscape:connector-curvature="0"
           d="m 75,6.25 0,13.375 0,12.75 0,57.625 5.34375,0 0,-83.75 z" />
        <rect
           style="opacity:0.4;fill:url(#linearGradient3181);fill-opacity:1;fill-rule:evenodd;stroke:none"
           id="rect7197"
           y="6.0000024"
           x="13.4999"
           height="83.749199"
           width="1.6903621" />
      </g>
      <path
         style="opacity:0.5;fill:url(#linearGradient3183);fill-opacity:1;fill-rule:nonzero;stroke:none"
         id="rect3728"
         inkscape:connector-curvature="0"
         d="M 12,6 C 8.676,6 6,8.676 6,12 l 0,2 0,68 0,2 c 0,0.334721 0.04135,0.6507 0.09375,0.96875 0.0487,0.295596 0.09704,0.596915 0.1875,0.875 0.00988,0.03038 0.020892,0.0636 0.03125,0.09375 0.098865,0.287771 0.2348802,0.547452 0.375,0.8125 0.1445918,0.273507 0.3156161,0.535615 0.5,0.78125 0.1843839,0.245635 0.3737765,0.473472 0.59375,0.6875 0.439947,0.428056 0.94291,0.814526 1.5,1.09375 0.278545,0.139612 0.5734731,0.246947 0.875,0.34375 -0.2562018,-0.100222 -0.4867109,-0.236272 -0.71875,-0.375 -0.00741,-0.0044 -0.023866,0.0045 -0.03125,0 -0.031933,-0.0193 -0.062293,-0.04251 -0.09375,-0.0625 -0.120395,-0.0767 -0.2310226,-0.163513 -0.34375,-0.25 -0.1061728,-0.0808 -0.2132809,-0.161112 -0.3125,-0.25 C 8.4783201,88.557317 8.3087904,88.373362 8.15625,88.1875 8.0486711,88.057245 7.9378561,87.922215 7.84375,87.78125 7.818661,87.74287 7.805304,87.69538 7.78125,87.65625 7.716487,87.553218 7.6510225,87.451733 7.59375,87.34375 7.4927417,87.149044 7.3880752,86.928049 7.3125,86.71875 7.30454,86.69694 7.288911,86.6782 7.28125,86.65625 7.2494249,86.5643 7.2454455,86.469419 7.21875,86.375 7.1884177,86.268382 7.1483606,86.171969 7.125,86.0625 7.0521214,85.720988 7,85.364295 7,85 L 7,83 7,15 7,13 C 7,10.218152 9.2181517,8 12,8 l 2,0 68,0 2,0 c 2.781848,0 5,2.218152 5,5 l 0,2 0,68 0,2 c 0,0.364295 -0.05212,0.720988 -0.125,1.0625 -0.04415,0.206893 -0.08838,0.397658 -0.15625,0.59375 -0.0077,0.02195 -0.0233,0.04069 -0.03125,0.0625 -0.06274,0.173739 -0.138383,0.367449 -0.21875,0.53125 -0.04158,0.0828 -0.07904,0.169954 -0.125,0.25 -0.0546,0.09721 -0.126774,0.18835 -0.1875,0.28125 -0.09411,0.140965 -0.204921,0.275995 -0.3125,0.40625 -0.143174,0.17445 -0.303141,0.346998 -0.46875,0.5 -0.01117,0.0102 -0.01998,0.02115 -0.03125,0.03125 -0.138386,0.125556 -0.285091,0.234436 -0.4375,0.34375 -0.102571,0.07315 -0.204318,0.153364 -0.3125,0.21875 -0.0074,0.0045 -0.02384,-0.0044 -0.03125,0 -0.232039,0.138728 -0.462548,0.274778 -0.71875,0.375 0.301527,-0.0968 0.596455,-0.204138 0.875,-0.34375 0.55709,-0.279224 1.060053,-0.665694 1.5,-1.09375 0.219973,-0.214028 0.409366,-0.441865 0.59375,-0.6875 0.184384,-0.245635 0.355408,-0.507743 0.5,-0.78125 0.14012,-0.265048 0.276135,-0.524729 0.375,-0.8125 0.01041,-0.03078 0.02133,-0.06274 0.03125,-0.09375 0.09046,-0.278085 0.1388,-0.579404 0.1875,-0.875 C 89.95865,84.6507 90,84.334721 90,84 l 0,-2 0,-68 0,-2 C 90,8.676 87.324,6 84,6 L 12,6 z" />
      <path
         style="opacity:0.3;fill:url(#radialGradient3185);fill-opacity:1;fill-rule:nonzero;stroke:none"
         id="path3615"
         inkscape:connector-curvature="0"
         d="M 12,90 C 8.676,90 6,87.324 6,84 L 6,82 6,14 6,12 c 0,-0.334721 0.04135,-0.6507 0.09375,-0.96875 0.0487,-0.295596 0.09704,-0.596915 0.1875,-0.875 C 6.29113,10.12587 6.302142,10.09265 6.3125,10.0625 6.411365,9.774729 6.5473802,9.515048 6.6875,9.25 6.8320918,8.976493 7.0031161,8.714385 7.1875,8.46875 7.3718839,8.223115 7.5612765,7.995278 7.78125,7.78125 8.221197,7.353194 8.72416,6.966724 9.28125,6.6875 9.559795,6.547888 9.8547231,6.440553 10.15625,6.34375 9.9000482,6.443972 9.6695391,6.580022 9.4375,6.71875 c -0.00741,0.0044 -0.023866,-0.0045 -0.03125,0 -0.031933,0.0193 -0.062293,0.04251 -0.09375,0.0625 -0.120395,0.0767 -0.2310226,0.163513 -0.34375,0.25 -0.1061728,0.0808 -0.2132809,0.161112 -0.3125,0.25 C 8.4783201,7.442683 8.3087904,7.626638 8.15625,7.8125 8.0486711,7.942755 7.9378561,8.077785 7.84375,8.21875 7.818661,8.25713 7.805304,8.30462 7.78125,8.34375 7.716487,8.446782 7.6510225,8.548267 7.59375,8.65625 7.4927417,8.850956 7.3880752,9.071951 7.3125,9.28125 7.30454,9.30306 7.288911,9.3218 7.28125,9.34375 7.2494249,9.4357 7.2454455,9.530581 7.21875,9.625 7.1884177,9.731618 7.1483606,9.828031 7.125,9.9375 7.0521214,10.279012 7,10.635705 7,11 l 0,2 0,68 0,2 c 0,2.781848 2.2181517,5 5,5 l 2,0 68,0 2,0 c 2.781848,0 5,-2.218152 5,-5 l 0,-2 0,-68 0,-2 C 89,10.635705 88.94788,10.279012 88.875,9.9375 88.83085,9.730607 88.78662,9.539842 88.71875,9.34375 88.71105,9.3218 88.69545,9.30306 88.6875,9.28125 88.62476,9.107511 88.549117,8.913801 88.46875,8.75 88.42717,8.6672 88.38971,8.580046 88.34375,8.5 88.28915,8.40279 88.216976,8.31165 88.15625,8.21875 88.06214,8.077785 87.951329,7.942755 87.84375,7.8125 87.700576,7.63805 87.540609,7.465502 87.375,7.3125 87.36383,7.3023 87.35502,7.29135 87.34375,7.28125 87.205364,7.155694 87.058659,7.046814 86.90625,6.9375 86.803679,6.86435 86.701932,6.784136 86.59375,6.71875 c -0.0074,-0.0045 -0.02384,0.0044 -0.03125,0 -0.232039,-0.138728 -0.462548,-0.274778 -0.71875,-0.375 0.301527,0.0968 0.596455,0.204138 0.875,0.34375 0.55709,0.279224 1.060053,0.665694 1.5,1.09375 0.219973,0.214028 0.409366,0.441865 0.59375,0.6875 0.184384,0.245635 0.355408,0.507743 0.5,0.78125 0.14012,0.265048 0.276135,0.524729 0.375,0.8125 0.01041,0.03078 0.02133,0.06274 0.03125,0.09375 0.09046,0.278085 0.1388,0.579404 0.1875,0.875 C 89.95865,11.3493 90,11.665279 90,12 l 0,2 0,68 0,2 c 0,3.324 -2.676,6 -6,6 l -72,0 z" />
    </g>
  </g>
</svg>
